<svg width="110" height="14" viewBox="0 0 110 14" fill="none" xmlns="http://www.w3.org/2000/svg">
<path d="M0.440249 13V4.504H2.85625L2.95225 6.872L2.21625 7.032C2.38692 6.57333 2.65892 6.14133 3.03225 5.736C3.41625 5.32 3.89092 4.984 4.45625 4.728C5.03225 4.46133 5.67758 4.328 6.39225 4.328C7.24558 4.328 7.96558 4.49333 8.55225 4.824C9.14958 5.15467 9.59758 5.59733 9.89625 6.152C10.2056 6.696 10.3602 7.30933 10.3602 7.992V13H7.80025V8.584C7.80025 8.168 7.69892 7.80533 7.49625 7.496C7.30425 7.176 7.03758 6.93067 6.69625 6.76C6.35492 6.57867 5.96558 6.488 5.52825 6.488C5.12292 6.488 4.76025 6.56267 4.44025 6.712C4.13092 6.85067 3.86958 7.032 3.65625 7.256C3.44292 7.46933 3.27758 7.704 3.16025 7.96C3.05358 8.20533 3.00025 8.44 3.00025 8.664V13H1.72025C1.29358 13 0.973582 13 0.760249 13C0.546915 13 0.440249 13 0.440249 13ZM17.0519 13.144C16.0279 13.144 15.1425 12.9573 14.3959 12.584C13.6599 12.2107 13.0892 11.6933 12.6839 11.032C12.2892 10.3707 12.0919 9.61333 12.0919 8.76C12.0919 7.896 12.2999 7.13333 12.7159 6.472C13.1319 5.8 13.7132 5.27733 14.4599 4.904C15.2065 4.52 16.0812 4.328 17.0839 4.328C17.6705 4.328 18.2145 4.39733 18.7159 4.536C19.2172 4.664 19.6599 4.83467 20.0439 5.048C20.4279 5.26133 20.7319 5.49067 20.9559 5.736C21.1799 5.97067 21.3132 6.2 21.3559 6.424L20.7159 6.52V4.504H23.2439V13H20.6679V10.632L21.1799 10.856C21.1585 11.112 21.0305 11.3733 20.7959 11.64C20.5719 11.9067 20.2732 12.1573 19.8999 12.392C19.5265 12.616 19.0945 12.7973 18.6039 12.936C18.1132 13.0747 17.5959 13.144 17.0519 13.144ZM17.6919 10.984C18.3212 10.984 18.8599 10.8933 19.3079 10.712C19.7665 10.52 20.1185 10.2587 20.3639 9.928C20.6199 9.58667 20.7479 9.19733 20.7479 8.76C20.7479 8.312 20.6199 7.92267 20.3639 7.592C20.1185 7.26133 19.7665 7 19.3079 6.808C18.8599 6.60533 18.3212 6.504 17.6919 6.504C17.0839 6.504 16.5505 6.60533 16.0919 6.808C15.6332 7 15.2759 7.26133 15.0199 7.592C14.7639 7.92267 14.6359 8.312 14.6359 8.76C14.6359 9.19733 14.7639 9.58667 15.0199 9.928C15.2759 10.2587 15.6332 10.52 16.0919 10.712C16.5505 10.8933 17.0839 10.984 17.6919 10.984ZM26.2481 13V4.504H28.6801L28.7601 6.68L28.1041 6.376C28.2855 6.14133 28.5095 5.90667 28.7761 5.672C29.0428 5.42667 29.3521 5.208 29.7041 5.016C30.0561 4.81333 30.4561 4.65333 30.9041 4.536C31.3628 4.408 31.8748 4.344 32.4401 4.344C32.9628 4.344 33.4481 4.424 33.8961 4.584C34.3548 4.73333 34.7441 4.98933 35.0641 5.352C35.3948 5.704 35.6241 6.17867 35.7521 6.776L35.0321 6.68L35.1761 6.424C35.3788 6.2 35.6188 5.96533 35.8961 5.72C36.1841 5.47467 36.5095 5.25067 36.8721 5.048C37.2348 4.83467 37.6401 4.664 38.0881 4.536C38.5361 4.408 39.0215 4.344 39.5441 4.344C40.4935 4.344 41.2455 4.51467 41.8001 4.856C42.3548 5.18667 42.7548 5.62933 43.0001 6.184C43.2455 6.73867 43.3681 7.336 43.3681 7.976V13H40.7921V8.344C40.7921 8.00267 40.7281 7.69333 40.6001 7.416C40.4828 7.13867 40.2855 6.92 40.0081 6.76C39.7415 6.58933 39.3948 6.504 38.9681 6.504C38.5521 6.504 38.1681 6.568 37.8161 6.696C37.4748 6.824 37.1708 7 36.9041 7.224C36.6481 7.43733 36.4455 7.688 36.2961 7.976C36.1575 8.264 36.0881 8.57333 36.0881 8.904V13H33.5121V8.328C33.5121 7.976 33.4375 7.66667 33.2881 7.4C33.1388 7.12267 32.8988 6.904 32.5681 6.744C32.2481 6.584 31.8268 6.504 31.3041 6.504C30.9308 6.504 30.5895 6.57333 30.2801 6.712C29.9815 6.85067 29.7201 7.032 29.4961 7.256C29.2828 7.46933 29.1175 7.69333 29.0001 7.928C28.8828 8.16267 28.8241 8.376 28.8241 8.568V13H26.2481ZM50.8853 13.16C49.7013 13.16 48.6613 12.9733 47.7653 12.6C46.8799 12.216 46.1919 11.6933 45.7013 11.032C45.2106 10.3707 44.9653 9.624 44.9653 8.792C44.9653 8.09867 45.1146 7.48 45.4133 6.936C45.7119 6.38133 46.1173 5.912 46.6293 5.528C47.1519 5.144 47.7493 4.85067 48.4213 4.648C49.1039 4.43467 49.8186 4.328 50.5653 4.328C51.3226 4.328 52.0213 4.43467 52.6613 4.648C53.3119 4.85067 53.8773 5.144 54.3573 5.528C54.8479 5.90133 55.2266 6.34933 55.4933 6.872C55.7599 7.39467 55.8826 7.976 55.8613 8.616L55.8453 9.4H46.8373L46.4693 7.8H53.7653L53.4933 8.168V7.848C53.4506 7.56 53.2906 7.30933 53.0133 7.096C52.7466 6.872 52.3999 6.696 51.9733 6.568C51.5573 6.44 51.0986 6.376 50.5973 6.376C50.0213 6.376 49.4879 6.45067 48.9973 6.6C48.5066 6.74933 48.1119 6.98933 47.8133 7.32C47.5146 7.64 47.3653 8.06667 47.3653 8.6C47.3653 9.05867 47.5253 9.47467 47.8453 9.848C48.1759 10.2107 48.6346 10.4987 49.2213 10.712C49.8186 10.9253 50.5173 11.032 51.3173 11.032C52.1279 11.032 52.7839 10.9467 53.2853 10.776C53.7866 10.5947 54.1599 10.44 54.4053 10.312L55.4933 11.944C55.0986 12.1893 54.6559 12.408 54.1653 12.6C53.6746 12.7813 53.1519 12.92 52.5973 13.016C52.0426 13.112 51.4719 13.16 50.8853 13.16ZM58.1279 13V4.504H60.6879V13H58.1279ZM59.3919 2.664C58.9119 2.664 58.5385 2.552 58.2719 2.328C58.0052 2.09333 57.8719 1.76267 57.8719 1.336C57.8719 0.951999 58.0052 0.637333 58.2719 0.391999C58.5492 0.146666 58.9225 0.0239992 59.3919 0.0239992C59.8719 0.0239992 60.2452 0.141333 60.5119 0.375999C60.7892 0.6 60.9279 0.92 60.9279 1.336C60.9279 1.73067 60.7892 2.05067 60.5119 2.296C60.2345 2.54133 59.8612 2.664 59.3919 2.664ZM67.869 13.16C66.7597 13.16 65.757 13.0267 64.861 12.76C63.9757 12.4933 63.2503 12.0827 62.685 11.528L64.253 10.104C64.6477 10.456 65.1597 10.744 65.789 10.968C66.429 11.1813 67.1543 11.288 67.965 11.288C68.1997 11.288 68.429 11.2773 68.653 11.256C68.8877 11.2347 69.101 11.1973 69.293 11.144C69.485 11.08 69.6397 11 69.757 10.904C69.8743 10.808 69.933 10.6907 69.933 10.552C69.933 10.328 69.7463 10.1627 69.373 10.056C69.1063 9.98133 68.7863 9.92267 68.413 9.88C68.0397 9.82667 67.6823 9.77867 67.341 9.736C66.6263 9.62933 65.9917 9.52267 65.437 9.416C64.8823 9.29867 64.4077 9.12267 64.013 8.888C63.693 8.67467 63.437 8.41867 63.245 8.12C63.0637 7.81067 62.973 7.42667 62.973 6.968C62.973 6.552 63.0957 6.184 63.341 5.864C63.5863 5.53333 63.9223 5.256 64.349 5.032C64.7757 4.79733 65.2663 4.62133 65.821 4.504C66.3863 4.38667 66.9837 4.328 67.613 4.328C68.1783 4.328 68.7543 4.376 69.341 4.472C69.9383 4.55733 70.5037 4.696 71.037 4.888C71.581 5.06933 72.0503 5.31467 72.445 5.624L71.181 7.224C70.893 7.032 70.541 6.856 70.125 6.696C69.709 6.536 69.261 6.408 68.781 6.312C68.301 6.216 67.8103 6.168 67.309 6.168C67.085 6.168 66.861 6.17867 66.637 6.2C66.4237 6.21067 66.2263 6.24267 66.045 6.296C65.8743 6.34933 65.7303 6.41867 65.613 6.504C65.4957 6.58933 65.437 6.696 65.437 6.824C65.437 6.89867 65.4637 6.97333 65.517 7.048C65.5703 7.112 65.645 7.17067 65.741 7.224C65.9543 7.352 66.2583 7.45333 66.653 7.528C67.0583 7.592 67.4957 7.656 67.965 7.72C68.8503 7.83733 69.597 7.98667 70.205 8.168C70.8237 8.34933 71.3143 8.56267 71.677 8.808C71.965 9 72.173 9.224 72.301 9.48C72.4397 9.72533 72.509 10.0133 72.509 10.344C72.509 10.92 72.3117 11.416 71.917 11.832C71.533 12.248 70.9943 12.5733 70.301 12.808C69.6077 13.0427 68.797 13.16 67.869 13.16ZM80.1217 13.176C79.5457 13.176 79.0071 13.1067 78.5057 12.968C78.0151 12.8293 77.5831 12.6533 77.2097 12.44C76.8471 12.2267 76.5484 11.9973 76.3137 11.752C76.0791 11.496 75.9297 11.2613 75.8657 11.048L76.7457 11.016L76.5857 12.984H74.2177V1.16H76.7937V6.536L75.9457 6.504C76.0204 6.25867 76.1751 6.01333 76.4097 5.768C76.6444 5.512 76.9484 5.27733 77.3217 5.064C77.7057 4.84 78.1377 4.664 78.6177 4.536C79.1084 4.39733 79.6364 4.328 80.2017 4.328C81.1297 4.328 81.9617 4.52 82.6977 4.904C83.4444 5.27733 84.0364 5.8 84.4737 6.472C84.9217 7.13333 85.1457 7.89067 85.1457 8.744C85.1457 9.608 84.9271 10.376 84.4897 11.048C84.0631 11.7093 83.4711 12.232 82.7137 12.616C81.9564 12.9893 81.0924 13.176 80.1217 13.176ZM79.5937 10.984C80.2124 10.984 80.7457 10.888 81.1937 10.696C81.6417 10.504 81.9884 10.2427 82.2337 9.912C82.4897 9.57067 82.6177 9.18133 82.6177 8.744C82.6177 8.296 82.4897 7.90667 82.2337 7.576C81.9884 7.23467 81.6364 6.97333 81.1777 6.792C80.7297 6.61067 80.2017 6.52 79.5937 6.52C78.9857 6.52 78.4524 6.61067 77.9937 6.792C77.5351 6.97333 77.1777 7.23467 76.9217 7.576C76.6764 7.90667 76.5537 8.296 76.5537 8.744C76.5537 9.18133 76.6764 9.57067 76.9217 9.912C77.1777 10.2427 77.5351 10.504 77.9937 10.696C78.4524 10.888 78.9857 10.984 79.5937 10.984ZM91.8251 13.16C90.6731 13.16 89.6545 12.9733 88.7691 12.6C87.8838 12.216 87.1905 11.6933 86.6891 11.032C86.1985 10.36 85.9531 9.59733 85.9531 8.744C85.9531 7.88 86.1985 7.11733 86.6891 6.456C87.1905 5.79467 87.8838 5.27733 88.7691 4.904C89.6545 4.52 90.6731 4.328 91.8251 4.328C92.9771 4.328 93.9905 4.52 94.8651 4.904C95.7398 5.27733 96.4225 5.79467 96.9131 6.456C97.4145 7.11733 97.6651 7.88 97.6651 8.744C97.6651 9.59733 97.4145 10.36 96.9131 11.032C96.4225 11.6933 95.7398 12.216 94.8651 12.6C93.9905 12.9733 92.9771 13.16 91.8251 13.16ZM91.8251 10.952C92.4225 10.952 92.9665 10.8613 93.4571 10.68C93.9585 10.488 94.3531 10.2267 94.6411 9.896C94.9398 9.56533 95.0838 9.18133 95.0731 8.744C95.0838 8.30667 94.9398 7.92267 94.6411 7.592C94.3531 7.25067 93.9585 6.98933 93.4571 6.808C92.9665 6.616 92.4225 6.52 91.8251 6.52C91.2171 6.52 90.6625 6.616 90.1611 6.808C89.6705 6.98933 89.2758 7.24533 88.9771 7.576C88.6891 7.90667 88.5451 8.296 88.5451 8.744C88.5451 9.18133 88.6891 9.56533 88.9771 9.896C89.2758 10.2267 89.6705 10.488 90.1611 10.68C90.6625 10.8613 91.2171 10.952 91.8251 10.952ZM99.7321 13V4.504H102.148L102.244 6.872L101.508 7.032C101.679 6.57333 101.951 6.14133 102.324 5.736C102.708 5.32 103.183 4.984 103.748 4.728C104.324 4.46133 104.969 4.328 105.684 4.328C106.537 4.328 107.257 4.49333 107.844 4.824C108.441 5.15467 108.889 5.59733 109.188 6.152C109.497 6.696 109.652 7.30933 109.652 7.992V13H107.092V8.584C107.092 8.168 106.991 7.80533 106.788 7.496C106.596 7.176 106.329 6.93067 105.988 6.76C105.647 6.57867 105.257 6.488 104.82 6.488C104.415 6.488 104.052 6.56267 103.732 6.712C103.423 6.85067 103.161 7.032 102.948 7.256C102.735 7.46933 102.569 7.704 102.452 7.96C102.345 8.20533 102.292 8.44 102.292 8.664V13H101.012C100.585 13 100.265 13 100.052 13C99.8388 13 99.7321 13 99.7321 13Z" fill="black"/>
</svg>
